<?xml version="1.0" encoding="utf-8"?>
<!-- Generator: Adobe Illustrator 20.0.0, SVG Export Plug-In . SVG Version: 6.00 Build 0)  -->
<svg version="1.1" id="Capa_1" xmlns="http://www.w3.org/2000/svg" xmlns:xlink="http://www.w3.org/1999/xlink" x="0px" y="0px"
	 viewBox="0 0 800 800" style="enable-background:new 0 0 800 800;" xml:space="preserve">
<style type="text/css">
	.st0{fill:#003039;}
	.st1{fill:#93E6FF;}
	.st2{fill:#59D8FF;}
	.st3{fill:#D4F5FF;}
	.st4{fill:#BAEFFF;}
	.st5{fill:#FFFFFF;}
</style>
<g>
	<path class="st0" d="M356.3,643c-133.4,0-242-108.5-242-242c0-133.4,108.5-242,242-242s242,108.5,242,242
		C598.3,534.5,489.8,643,356.3,643z M356.3,197.6c-112.2,0-203.4,91.2-203.4,203.4s91.2,203.4,203.4,203.4S559.7,513.2,559.7,401
		S468.5,197.6,356.3,197.6z"/>
	<path class="st0" d="M356.3,519.6c-65.4,0-118.6-53.2-118.6-118.6c0-65.4,53.2-118.6,118.6-118.6c65.4,0,118.6,53.2,118.6,118.6
		C474.9,466.4,421.7,519.6,356.3,519.6z M356.3,321c-44.1,0-80,35.9-80,80c0,44.1,35.9,80,80,80c44.1,0,80-35.9,80-80
		C436.4,356.9,400.5,321,356.3,321z"/>
	<rect x="259.9" y="604.8" class="st0" width="38.6" height="104.4"/>
	<rect x="337.1" y="604.8" class="st0" width="38.6" height="104.4"/>
	<rect x="414.2" y="604.8" class="st0" width="38.6" height="104.4"/>
	<rect x="259.9" y="90.8" class="st0" width="38.6" height="104.4"/>
	<rect x="337.1" y="90.8" class="st0" width="38.6" height="104.4"/>
	<rect x="414.2" y="90.8" class="st0" width="38.6" height="104.4"/>
	<rect x="561.8" y="304.6" class="st0" width="123.8" height="38.6"/>
	<rect x="561.8" y="381.8" class="st0" width="99.1" height="38.6"/>
	<rect x="561.8" y="458.9" class="st0" width="123.8" height="38.6"/>
</g>
<g>
	<path class="st1" d="M121.9,257.9c1.9-2,5.2-2,7.1,0c13.1,14,57.8,65.2,57.8,109.4c0,33.9-27.5,61.4-61.4,61.4S64,401.1,64,367.2
		C64,323.1,108.8,271.9,121.9,257.9z"/>
	<path class="st2" d="M157.7,412.5c-33.9,0-61.4-27.5-61.4-61.4c0-30.3,21.1-64,38.6-86.6c-2.4-2.7-4.4-4.9-6-6.6
		c-1.9-2.1-5.2-2.1-7.1,0c-13.1,14-57.8,65.2-57.8,109.4c0,33.9,27.5,61.4,61.4,61.4c16.5,0,31.4-6.5,42.4-17
		C164.5,412.1,161.1,412.5,157.7,412.5z"/>
	<path class="st2" d="M186.8,367.2c0-30-20.7-63.2-38-85.9c-7.7,13.8-13.7,29.2-13.7,43.9c0,28.2,22.7,51.2,50.9,51.6
		C186.4,373.7,186.8,370.5,186.8,367.2z"/>
	<path class="st3" d="M183.2,245.1c1.9-2.1,5.2-2.1,7.2,0c10.7,11.8,41.7,48.7,41.7,80.2c0,25-20.2,45.2-45.2,45.2
		s-45.2-20.2-45.2-45.2C141.5,293.7,172.5,256.9,183.2,245.1z"/>
	<path class="st4" d="M215.8,354.3c-25,0-45.2-20.2-45.2-45.2c0-20,12.5-42.2,24.4-58.7c-1.8-2.1-3.3-3.9-4.6-5.3
		c-1.9-2.1-5.2-2.1-7.2,0c-10.7,11.8-41.6,48.7-41.6,80.2c0,25,20.2,45.2,45.2,45.2c14.1,0,26.7-6.5,35-16.6
		C219.8,354.1,217.9,354.3,215.8,354.3z"/>
	<path class="st5" d="M186.8,360.8c-1.8,0-3.2-1.4-3.2-3.2c0-1.8,1.4-3.2,3.2-3.2c16,0,29.1-13,29.1-29.1c0-1.8,1.4-3.2,3.2-3.2
		s3.2,1.4,3.2,3.2C222.3,344.8,206.4,360.8,186.8,360.8z"/>
	<path class="st3" d="M208.1,353.6c-2.9-0.5-5.7-1.3-8.4-2.3c-3.9,1.9-8.2,3-12.9,3c-1.8,0-3.2,1.4-3.2,3.2c0,1.8,1.4,3.2,3.2,3.2
		C194.8,360.8,202.1,358.1,208.1,353.6z"/>
</g>
</svg>
